<svg version="1.1" xmlns="http://www.w3.org/2000/svg" width="100px" height="97px" transform="rotate(0) scale(1, 1)">
<path d="M0 0 C0.51433594 0.23332031 1.02867188 0.46664063 1.55859375 0.70703125 C1.77601422 3.10771559 1.93326841 5.48873234 2.05859375 7.89453125 C2.15914062 8.90483398 2.15914062 8.90483398 2.26171875 9.93554688 C2.33984375 11.9375 2.33984375 11.9375 1.55859375 15.70703125 C0.0271883 17.01662731 0.0271883 17.01662731 -1.96598816 18.17192078 C-2.69349463 18.59654791 -3.42100109 19.02117504 -4.17055321 19.45866966 C-7.68903653 21.39289409 -11.23574073 23.24759812 -14.8293457 25.03833008 C-15.62548782 25.4389566 -16.42162994 25.83958313 -17.24189758 26.25234985 C-19.84412779 27.56035174 -22.44923458 28.86249333 -25.0546875 30.1640625 C-26.87461469 31.07597141 -28.69445278 31.98805816 -30.51420593 32.90031433 C-34.31288476 34.80337052 -38.11308424 36.70334823 -41.91430664 38.60131836 C-46.7913796 41.03694312 -51.66381905 43.4816844 -56.53509235 45.92888355 C-60.28441085 47.81089217 -64.03647119 49.6873804 -67.78935814 51.56226158 C-69.58808213 52.46188062 -71.38585896 53.36339598 -73.1826725 54.26682472 C-75.68577783 55.52452042 -78.1925534 56.77457592 -80.70043945 58.02270508 C-81.44384583 58.39823013 -82.1872522 58.77375519 -82.95318604 59.16065979 C-88.09881069 61.70703125 -88.09881069 61.70703125 -91.44140625 61.70703125 C-91.44140625 56.09703125 -91.44140625 50.48703125 -91.44140625 44.70703125 C-89.23453125 43.61390625 -87.02765625 42.52078125 -84.75390625 41.39453125 C-78.11873342 38.09437646 -71.55443325 34.67167359 -65.00390625 31.20703125 C-58.0014133 27.50893643 -50.9476723 24.00887853 -43.75634766 20.6953125 C-38.37401266 18.19532778 -33.11983132 15.49016864 -27.87890625 12.70703125 C-27.09040283 12.28953613 -26.30189941 11.87204102 -25.48950195 11.44189453 C-22.36213907 9.78553019 -19.23486325 8.12902273 -16.11035156 6.46728516 C-13.91445705 5.30555284 -11.7106307 4.16052694 -9.50390625 3.01953125 C-8.84769287 2.66826172 -8.19147949 2.31699219 -7.51538086 1.95507812 C-2.9925762 -0.35910914 -2.9925762 -0.35910914 0 0 Z " fill="#1b2036" transform="translate(94.44140625,5.29296875)"/>
<path d="M0 0 C0.02699725 2.27076842 0.04639453 4.54162821 0.0625 6.8125 C0.07410156 8.07707031 0.08570312 9.34164062 0.09765625 10.64453125 C0 14 0 14 -1 17 C-2.52302456 18.07192516 -2.52302456 18.07192516 -4.52354431 19.06913757 C-5.27930252 19.4518985 -6.03506073 19.83465942 -6.8137207 20.22901917 C-7.6485498 20.63901657 -8.48337891 21.04901398 -9.34350586 21.47143555 C-10.21826065 21.9107843 -11.09301544 22.35013306 -11.99427795 22.80279541 C-14.89636463 24.257204 -17.80539388 25.69710353 -20.71484375 27.13671875 C-22.72682357 28.14058482 -24.73842077 29.14521806 -26.74964905 30.15058899 C-30.96931391 32.25733431 -35.19220832 34.35740888 -39.41772461 36.45239258 C-44.84461419 39.14319522 -50.26531846 41.84617654 -55.68392086 44.55362225 C-59.83851519 46.62870903 -63.9952671 48.69944003 -68.15280342 50.76862526 C-70.15279495 51.76416924 -72.15235142 52.76058769 -74.15147209 53.75787926 C-76.9413195 55.1483005 -79.73376697 56.5333448 -82.52709961 57.91674805 C-83.35990448 58.33281815 -84.19270935 58.74888824 -85.05075073 59.17756653 C-85.80932877 59.55186798 -86.5679068 59.92616943 -87.34947205 60.31181335 C-88.34029486 60.80373688 -88.34029486 60.80373688 -89.3511343 61.30559826 C-91 62 -91 62 -93 62 C-93 56.39 -93 50.78 -93 45 C-81.52036234 38.87471589 -69.9623809 32.93711248 -58.3203125 27.12890625 C-57.62709648 26.7830183 -56.93388046 26.43713036 -56.2196579 26.08076096 C-51.18952311 23.57182453 -46.15743572 21.06681721 -41.125 18.5625 C-36.04038043 16.03206625 -30.95646504 13.50023601 -25.87420273 10.96507072 C-23.862605 9.96248495 -21.84981105 8.96233103 -19.83694458 7.96229553 C-18.60494191 7.34811008 -17.37299509 6.73381259 -16.14111328 6.11938477 C-15.07257111 5.58773209 -14.00402893 5.05607941 -12.90310669 4.50831604 C-9.99151633 3.04283691 -9.99151633 3.04283691 -7.29196167 1.3167572 C-4.64338895 -0.20487697 -3.00507414 -0.25757778 0 0 Z " fill="#1b2036" transform="translate(96,28)"/>
<path d="M0 0 C0.76861875 5.7612988 1.34219506 11.53275317 -1 17 C-5.26061337 21.44820452 -11.48424727 23.50282514 -17.08398438 25.77587891 C-20.1864052 27.07825148 -23.18765665 28.51950398 -26.203125 30.01171875 C-30.17585701 31.97658526 -34.14743014 33.94085542 -38.1484375 35.84765625 C-38.96489746 36.23961182 -39.78135742 36.63156738 -40.62255859 37.03540039 C-43.07447447 38.03021654 -45.39492283 38.56659252 -48 39 C-49.19635725 24.859722 -49.19635725 24.859722 -46.78125 21.10546875 C-44.59733381 19.75009971 -42.40732803 18.90784828 -40 18 C-38.23854726 17.11724431 -36.4778381 16.23279435 -34.72753906 15.328125 C-32.69434162 14.28391496 -30.64688884 13.27391733 -28.59375 12.26953125 C-25.263161 10.63423547 -21.95601112 8.95834987 -18.65625 7.26171875 C-17.30901855 6.57372192 -17.30901855 6.57372192 -15.93457031 5.87182617 C-14.17046312 4.97036034 -12.40928513 4.06313473 -10.65136719 3.1496582 C-9.84344727 2.7393335 -9.03552734 2.32900879 -8.203125 1.90625 C-7.48801758 1.53822266 -6.77291016 1.17019531 -6.03613281 0.79101562 C-4 0 -4 0 0 0 Z " fill="#1b2036" transform="translate(51,5)"/>
<path d="M0 0 C0 5.28 0 10.56 0 16 C-6.50940828 19.3040006 -13.0239169 22.59762869 -19.54345703 25.8815918 C-21.76235339 27.00112144 -23.97980781 28.12351364 -26.19580078 29.2487793 C-29.37421385 30.86214006 -32.55760546 32.46526418 -35.7421875 34.06640625 C-37.23599442 34.82879356 -37.23599442 34.82879356 -38.75997925 35.60658264 C-40.14118454 36.29741188 -40.14118454 36.29741188 -41.55029297 37.00219727 C-42.3630368 37.41301041 -43.17578064 37.82382355 -44.01315308 38.24708557 C-44.9966423 38.61977821 -44.9966423 38.61977821 -46 39 C-46.66 38.67 -47.32 38.34 -48 38 C-48 32.72 -48 27.44 -48 22 C-37.05771265 16.15971892 -26.05549307 10.43556576 -15 4.8125 C-13.86062988 4.22380127 -12.72125977 3.63510254 -11.54736328 3.02856445 C-10.4798584 2.4893335 -9.41235352 1.95010254 -8.3125 1.39453125 C-7.35988281 0.90831299 -6.40726563 0.42209473 -5.42578125 -0.07885742 C-3 -1 -3 -1 0 0 Z " fill="#1b2036" transform="translate(96,51)"/>
<path d="M0 0 C0 0.66 0 1.32 0 2 C-0.99 2 -1.98 2 -3 2 C-3 6.95 -3 11.9 -3 17 C-2.34 17.33 -1.68 17.66 -1 18 C-2.32 18.33 -3.64 18.66 -5 19 C-5.08071788 16.20775927 -5.14035408 13.41783434 -5.1875 10.625 C-5.21263672 9.8309375 -5.23777344 9.036875 -5.26367188 8.21875 C-5.29004405 6.14413852 -5.15486462 4.06899135 -5 2 C-2 0 -2 0 0 0 Z " fill="#1b2036" transform="translate(8,71)"/>
<path d="M0 0 C0 0.66 0 1.32 0 2 C-0.99 2 -1.98 2 -3 2 C-3 6.95 -3 11.9 -3 17 C-2.34 17.33 -1.68 17.66 -1 18 C-1.99 18.33 -2.98 18.66 -4 19 C-6.05014613 16.94985387 -5.23057975 12.87115412 -5.25 10.0625 C-5.270625 9.32064453 -5.29125 8.57878906 -5.3125 7.81445312 C-5.328125 5.66015625 -5.328125 5.66015625 -5 2 C-2 0 -2 0 0 0 Z " fill="#1b2036" transform="translate(53,71)"/>
<path d="M0 0 C0 4.95 0 9.9 0 15 C-0.66 15.33 -1.32 15.66 -2 16 C-2 11.05 -2 6.1 -2 1 C-3.32 0.67 -4.64 0.34 -6 0 C-4 -1 -4 -1 0 0 Z " fill="#1b2036" transform="translate(96,6)"/>
<path d="M0 0 C-0.33 5.61 -0.66 11.22 -1 17 C-1.33 17 -1.66 17 -2 17 C-2 12.05 -2 7.1 -2 2 C-3.32 1.67 -4.64 1.34 -6 1 C-4 0 -4 0 0 0 Z " fill="#1b2036" transform="translate(51,5)"/>
</svg>